<svg xmlns="http://www.w3.org/2000/svg" xmlns:xlink="http://www.w3.org/1999/xlink" viewBox="0 0 51 65" fill="#fff" fill-rule="evenodd" stroke="#000" stroke-linecap="round" stroke-linejoin="round"><use xlink:href="#A" x=".5" y=".5"/><symbol id="A" overflow="visible"><path d="M21.616 30.845c-.74.08-1.314.678-1.365 1.42s.436 1.413 1.157 1.594c0 0 3.736 1.25 10.097 1.763 5.108.417 10.9-.353 10.9-.353.6.008 1.15-.334 1.407-.876s.175-1.184-.21-1.644-1.004-.652-1.582-.493c0 0-5.666.705-10.276.32-6.07-.48-9.385-1.603-9.385-1.603a1.55 1.55 0 0 0-.742 0zm0-7.6c-.704.113-1.238.696-1.288 1.408s.398 1.364 1.08 1.573c0 0 3.736 1.25 10.097 1.763 5.108.417 10.9-.353 10.9-.353.544-.07 1-.423 1.223-.928s.14-1.086-.193-1.523-.87-.663-1.416-.594c0 0-5.666.705-10.276.32-6.07-.48-9.385-1.603-9.385-1.603a1.55 1.55 0 0 0-.742 0zm0-7.604c-.74.08-1.314.678-1.365 1.42s.436 1.413 1.157 1.594c0 0 3.736 1.218 10.097 1.763 5.108.417 10.9-.353 10.9-.353.544-.07 1-.423 1.223-.928s.14-1.086-.193-1.523-.87-.663-1.416-.594c0 0-5.666.705-10.276.32-6.07-.48-9.385-1.603-9.385-1.603a1.55 1.55 0 0 0-.742 0zm0-7.604c-.74.08-1.314.678-1.365 1.42s.436 1.413 1.157 1.594c0 0 3.736 1.25 10.097 1.763 5.108.417 10.9-.353 10.9-.353.6.008 1.15-.334 1.407-.876s.175-1.184-.21-1.644-1.004-.652-1.582-.493c0 0-5.666.705-10.276.32-6.07-.48-9.385-1.603-9.385-1.603a1.55 1.55 0 0 0-.742 0zM10.966.019C2.966.019 0 2.519 0 2.519v59.667s2.907-2.5 12.265-2.116 11.288 3.664 22.79 3.895c11.5.32 14.392-1.763 14.392-1.763l.167-60.828s-5.178 1.476-15.25 1.541C24.292 2.915 21.871.349 12.626.029c-.552-.02-1.104-.03-1.657-.029zm6.685 3.895s4.84 1.603 13.784 2.052c7.558.385 15.137-.737 15.137-.737v54.06s-3.836 2.02-13.425 1.314c-7.43-.545-15.607-3.344-15.607-3.344zm-4.668 1.4c.86 0 1.555.696 1.555 1.555s-.696 1.555-1.555 1.555c0 0-2.504.013-4.033.32-2.567.32-4.31 1.186-4.31 1.186-.49.308-1.113.315-1.61.02a1.54 1.54 0 0 1-.75-1.425c.038-.578.394-1.087.926-1.318 0 0 2.273-1.186 5.442-1.507 1.83-.32 4.337-.32 4.337-.32zm-1.492 7.623a26.89 26.89 0 0 1 1.492 0c.8.068 1.413.737 1.413 1.54s-.614 1.47-1.413 1.54c0 0-2.504.013-4.033.32-2.567.32-4.31 1.186-4.31 1.186-.74.322-1.605.02-1.982-.696s-.14-1.6.546-2.03c0 0 2.273-1.218 5.442-1.507.916 0 2 0 2.845-.32zm1.492 7.597c.86 0 1.555.696 1.555 1.555s-.696 1.555-1.555 1.555c0 0-2.504-.016-4.033 0-2.567.32-4.31 1.186-4.31 1.186-.74.322-1.605.02-1.982-.696s-.14-1.6.546-2.03c0 0 2.273-1.186 5.442-1.507 1.83-.32 4.337-.32 4.337-.32z" stroke="none" fill="#32322a" fill-rule="nonzero"/></symbol></svg>